<mxfile host="Electron" modified="2024-09-07T11:14:08.997Z" agent="Mozilla/5.0 (Windows NT 10.0; Win64; x64) AppleWebKit/537.36 (KHTML, like Gecko) draw.io/24.6.1 Chrome/124.0.6367.207 Electron/30.0.6 Safari/537.36" etag="X5NewdJi_Fop9KKpf4M9" version="24.6.1" type="device">
  <diagram id="C5RBs43oDa-KdzZeNtuy" name="Page-1">
    <mxGraphModel dx="1434" dy="884" grid="1" gridSize="10" guides="1" tooltips="1" connect="1" arrows="1" fold="1" page="1" pageScale="1" pageWidth="827" pageHeight="1169" math="0" shadow="0">
      <root>
        <mxCell id="WIyWlLk6GJQsqaUBKTNV-0" />
        <mxCell id="WIyWlLk6GJQsqaUBKTNV-1" parent="WIyWlLk6GJQsqaUBKTNV-0" />
        <mxCell id="ULtwpGgtOxIw6rJTAXXp-8" style="edgeStyle=orthogonalEdgeStyle;rounded=0;orthogonalLoop=1;jettySize=auto;html=1;exitX=0.5;exitY=1;exitDx=0;exitDy=0;entryX=0.5;entryY=0;entryDx=0;entryDy=0;strokeWidth=2;" edge="1" parent="WIyWlLk6GJQsqaUBKTNV-1" source="ULtwpGgtOxIw6rJTAXXp-0" target="ULtwpGgtOxIw6rJTAXXp-1">
          <mxGeometry relative="1" as="geometry" />
        </mxCell>
        <mxCell id="ULtwpGgtOxIw6rJTAXXp-0" value="START" style="ellipse;whiteSpace=wrap;html=1;strokeWidth=3;perimeterSpacing=0;fillStyle=solid;shadow=0;fontSize=13;fontStyle=0;spacingTop=0;spacing=2;spacingLeft=0;fillColor=#d5e8d4;strokeColor=#000000;" vertex="1" parent="WIyWlLk6GJQsqaUBKTNV-1">
          <mxGeometry x="354" y="185" width="120" height="80" as="geometry" />
        </mxCell>
        <mxCell id="ULtwpGgtOxIw6rJTAXXp-9" style="edgeStyle=orthogonalEdgeStyle;rounded=0;orthogonalLoop=1;jettySize=auto;html=1;exitX=0.5;exitY=1;exitDx=0;exitDy=0;entryX=0.5;entryY=0;entryDx=0;entryDy=0;strokeWidth=2;" edge="1" parent="WIyWlLk6GJQsqaUBKTNV-1" source="ULtwpGgtOxIw6rJTAXXp-1" target="ULtwpGgtOxIw6rJTAXXp-2">
          <mxGeometry relative="1" as="geometry" />
        </mxCell>
        <mxCell id="ULtwpGgtOxIw6rJTAXXp-1" value="Input : Sanskrit Text" style="shape=parallelogram;perimeter=parallelogramPerimeter;whiteSpace=wrap;html=1;fixedSize=1;strokeWidth=3;perimeterSpacing=0;fillStyle=solid;shadow=0;fontSize=13;fontStyle=0;spacingTop=0;spacing=2;spacingLeft=0;fillColor=#fff2cc;strokeColor=#000000;" vertex="1" parent="WIyWlLk6GJQsqaUBKTNV-1">
          <mxGeometry x="314" y="305" width="200" height="60" as="geometry" />
        </mxCell>
        <mxCell id="ULtwpGgtOxIw6rJTAXXp-10" style="edgeStyle=orthogonalEdgeStyle;rounded=0;orthogonalLoop=1;jettySize=auto;html=1;exitX=0.5;exitY=1;exitDx=0;exitDy=0;entryX=0.5;entryY=0;entryDx=0;entryDy=0;strokeWidth=2;" edge="1" parent="WIyWlLk6GJQsqaUBKTNV-1" source="ULtwpGgtOxIw6rJTAXXp-2" target="ULtwpGgtOxIw6rJTAXXp-3">
          <mxGeometry relative="1" as="geometry" />
        </mxCell>
        <mxCell id="ULtwpGgtOxIw6rJTAXXp-2" value="Process : sanskrit_to_english_transliteration" style="rounded=0;whiteSpace=wrap;html=1;strokeWidth=3;perimeterSpacing=0;fillStyle=solid;shadow=0;fontSize=13;fontStyle=0;spacingTop=0;spacing=2;spacingLeft=0;fillColor=#dae8fc;strokeColor=#000000;" vertex="1" parent="WIyWlLk6GJQsqaUBKTNV-1">
          <mxGeometry x="274" y="405" width="280" height="60" as="geometry" />
        </mxCell>
        <mxCell id="ULtwpGgtOxIw6rJTAXXp-11" style="edgeStyle=orthogonalEdgeStyle;rounded=0;orthogonalLoop=1;jettySize=auto;html=1;exitX=0.5;exitY=1;exitDx=0;exitDy=0;entryX=0.5;entryY=0;entryDx=0;entryDy=0;strokeWidth=2;" edge="1" parent="WIyWlLk6GJQsqaUBKTNV-1" source="ULtwpGgtOxIw6rJTAXXp-3" target="ULtwpGgtOxIw6rJTAXXp-4">
          <mxGeometry relative="1" as="geometry" />
        </mxCell>
        <mxCell id="ULtwpGgtOxIw6rJTAXXp-3" value="Output: Transliterated &lt;span style=&quot;font-size: 13px;&quot; class=&quot;hljs-keyword&quot;&gt;Text&lt;/span&gt; (Data)" style="shape=parallelogram;perimeter=parallelogramPerimeter;whiteSpace=wrap;html=1;fixedSize=1;strokeWidth=3;perimeterSpacing=0;fillStyle=solid;shadow=0;fontSize=13;fontStyle=0;spacingTop=0;spacing=2;spacingLeft=0;fillColor=#fff2cc;strokeColor=#000000;" vertex="1" parent="WIyWlLk6GJQsqaUBKTNV-1">
          <mxGeometry x="281" y="505" width="266" height="60" as="geometry" />
        </mxCell>
        <mxCell id="ULtwpGgtOxIw6rJTAXXp-12" style="edgeStyle=orthogonalEdgeStyle;rounded=0;orthogonalLoop=1;jettySize=auto;html=1;exitX=0.5;exitY=1;exitDx=0;exitDy=0;entryX=0.5;entryY=0;entryDx=0;entryDy=0;strokeWidth=2;" edge="1" parent="WIyWlLk6GJQsqaUBKTNV-1" source="ULtwpGgtOxIw6rJTAXXp-4" target="ULtwpGgtOxIw6rJTAXXp-5">
          <mxGeometry relative="1" as="geometry" />
        </mxCell>
        <mxCell id="ULtwpGgtOxIw6rJTAXXp-4" value="Process :&amp;nbsp;convert_to_speech" style="rounded=0;whiteSpace=wrap;html=1;strokeWidth=3;perimeterSpacing=0;fillStyle=solid;shadow=0;fontSize=13;fontStyle=0;spacingTop=0;spacing=2;spacingLeft=0;fillColor=#dae8fc;strokeColor=#000000;" vertex="1" parent="WIyWlLk6GJQsqaUBKTNV-1">
          <mxGeometry x="309" y="605" width="210" height="60" as="geometry" />
        </mxCell>
        <mxCell id="ULtwpGgtOxIw6rJTAXXp-13" style="edgeStyle=orthogonalEdgeStyle;rounded=0;orthogonalLoop=1;jettySize=auto;html=1;entryX=0.5;entryY=0;entryDx=0;entryDy=0;strokeWidth=2;" edge="1" parent="WIyWlLk6GJQsqaUBKTNV-1" source="ULtwpGgtOxIw6rJTAXXp-5" target="ULtwpGgtOxIw6rJTAXXp-6">
          <mxGeometry relative="1" as="geometry" />
        </mxCell>
        <mxCell id="ULtwpGgtOxIw6rJTAXXp-5" value="Output : MP3 file" style="shape=parallelogram;perimeter=parallelogramPerimeter;whiteSpace=wrap;html=1;fixedSize=1;strokeWidth=3;perimeterSpacing=0;fillStyle=solid;shadow=0;fontSize=13;fontStyle=0;spacingTop=0;spacing=2;spacingLeft=0;fillColor=#fff2cc;strokeColor=#000000;" vertex="1" parent="WIyWlLk6GJQsqaUBKTNV-1">
          <mxGeometry x="317" y="705" width="193" height="60" as="geometry" />
        </mxCell>
        <mxCell id="ULtwpGgtOxIw6rJTAXXp-14" style="edgeStyle=orthogonalEdgeStyle;rounded=0;orthogonalLoop=1;jettySize=auto;html=1;exitX=0.5;exitY=1;exitDx=0;exitDy=0;entryX=0.5;entryY=0;entryDx=0;entryDy=0;strokeWidth=2;" edge="1" parent="WIyWlLk6GJQsqaUBKTNV-1" source="ULtwpGgtOxIw6rJTAXXp-6" target="ULtwpGgtOxIw6rJTAXXp-7">
          <mxGeometry relative="1" as="geometry" />
        </mxCell>
        <mxCell id="ULtwpGgtOxIw6rJTAXXp-6" value="Process :&amp;nbsp;play_audio" style="rounded=0;whiteSpace=wrap;html=1;strokeWidth=3;perimeterSpacing=0;fillStyle=solid;shadow=0;fontSize=13;fontStyle=0;spacingTop=0;spacing=2;spacingLeft=0;fillColor=#dae8fc;strokeColor=#000000;" vertex="1" parent="WIyWlLk6GJQsqaUBKTNV-1">
          <mxGeometry x="309" y="805" width="210" height="60" as="geometry" />
        </mxCell>
        <mxCell id="ULtwpGgtOxIw6rJTAXXp-7" value="END" style="ellipse;whiteSpace=wrap;html=1;strokeWidth=3;perimeterSpacing=0;fillStyle=solid;shadow=0;fontSize=13;fontStyle=0;spacingTop=0;spacing=2;spacingLeft=0;fillColor=#f8cecc;strokeColor=#000000;" vertex="1" parent="WIyWlLk6GJQsqaUBKTNV-1">
          <mxGeometry x="354" y="905" width="120" height="80" as="geometry" />
        </mxCell>
      </root>
    </mxGraphModel>
  </diagram>
</mxfile>
